<?xml version="1.0" encoding="iso-8859-1"?>
<!-- Generator: Adobe Illustrator 17.1.0, SVG Export Plug-In . SVG Version: 6.00 Build 0)  -->
<!DOCTYPE svg PUBLIC "-//W3C//DTD SVG 1.1//EN" "http://www.w3.org/Graphics/SVG/1.1/DTD/svg11.dtd">
<svg version="1.1" id="Capa_1" xmlns="http://www.w3.org/2000/svg" xmlns:xlink="http://www.w3.org/1999/xlink" x="0px" y="0px"
	 viewBox="0 0 460.545 460.545" style="enable-background:new 0 0 460.545 460.545;" xml:space="preserve">
<g>
	<path style="fill:#FFD5A1;" d="M241.559,231.137c9.65-23.904,16.411-41.779,15.525-54.18c-0.564-7.896-4.07-16.405-25.726-25.139
		c-8.738-3.529-15.797-5.243-21.584-5.243c-16.773,0-25.31,16.845-40.786,55.281c-11.625,28.785-14.729,46.498-10.069,57.443
		c3.032,7.121,10.031,12.683,22.027,17.502c7.399,2.973,13.573,4.418,18.875,4.418C212.765,281.22,224.816,272.703,241.559,231.137z
		"/>
	<path style="fill:#7A4D33;" d="M251.771,111.655c3.027,0.748,6.122,1.128,9.2,1.128c17.506,0,32.675-11.908,36.889-28.958
		c2.434-9.847,0.884-20.066-4.366-28.775c-5.255-8.719-13.586-14.863-23.457-17.303c-3.002-0.742-6.074-1.118-9.134-1.118
		c-17.549,0-32.746,11.896-36.955,28.929c-2.443,9.884-0.892,20.121,4.367,28.825C233.57,103.081,241.901,109.215,251.771,111.655z"
		/>
	<path style="fill:#FFAC52;" d="M399.762,54.994c-23.342,0-40.783,11.071-40.783,20.97c0,9.899,17.441,20.971,40.783,20.971
		s40.783-11.071,40.783-20.971C440.545,66.066,423.104,54.994,399.762,54.994z"/>
	<path d="M370.814,136.466c-5.233-1.77-10.908,1.03-12.681,6.261c-5.881,17.352-16.962,29.858-32.047,36.168
		c-14.688,6.142-32.223,5.823-48.949-0.698c-0.016-0.895-0.041-1.787-0.104-2.664c-1.77-24.788-22.645-35.992-38.19-42.261
		c-11.158-4.506-20.667-6.696-29.068-6.696c-11.217,0-20.053,3.864-27.435,10.434c-19.461-5.763-39.656-3.038-57.515,7.904
		c-23.015,14.102-38.441,40.122-41.262,69.604c-0.526,5.498,3.504,10.382,9.001,10.907c0.324,0.031,0.646,0.047,0.965,0.047
		c5.094-0.001,9.447-3.874,9.942-9.048c2.228-23.262,14.116-43.619,31.803-54.456c10.415-6.382,21.909-8.885,33.319-7.445
		c-6.661,11.323-12.246,25.184-18.153,39.856c-14.034,34.753-16.966,55.775-10.075,72.377c-2.573,6.602-10.056,21.835-26.566,29.749
		c-18.353,8.797-42.812,6.603-72.699-6.524c-3.398-1.493-7.346-0.98-10.25,1.333L3.772,312.868c-4.32,3.439-5.035,9.73-1.595,14.052
		c1.975,2.48,4.888,3.772,7.83,3.772c2.183,0,4.381-0.711,6.222-2.177l22.431-17.858c33.196,13.459,61.469,14.719,84.1,3.729
		c15.935-7.738,25.632-19.999,31.251-29.89c5.192,4.126,11.627,7.71,19.48,10.865c5.799,2.33,11.17,3.934,16.231,4.871
		c3.436,9.933,9.43,33.319-0.862,54.513c-9.059,18.654-29.008,31.727-59.293,38.852c-3.026,0.712-5.549,2.79-6.826,5.624
		c-1.277,2.834-1.165,6.101,0.305,8.839l16.414,30.585c1.805,3.362,5.255,5.273,8.82,5.273c1.596,0,3.215-0.383,4.72-1.19
		c4.866-2.612,6.694-8.674,4.083-13.54l-10.474-19.516c29.594-9.244,49.828-24.746,60.241-46.19
		c11.562-23.808,7.827-48.785,3.718-63.521c22.525-5.494,36.378-28.671,49.539-61.343c6.199-15.353,11.297-28.523,14.26-40.148
		c9.596,3.211,19.393,4.835,28.979,4.835c10.6,0,20.939-1.976,30.458-5.957c20.239-8.466,35.607-25.584,43.271-48.199
		C378.847,143.916,376.044,138.239,370.814,136.466z M180.947,276.802c-11.996-4.819-18.995-10.381-22.027-17.502
		c-4.659-10.945-1.556-28.658,10.069-57.443c15.477-38.437,24.013-55.281,40.786-55.281c5.787,0,12.846,1.714,21.584,5.243
		c21.655,8.733,25.162,17.243,25.726,25.139c0.886,12.4-5.875,30.275-15.525,54.18c-16.743,41.566-28.794,50.083-41.737,50.083
		C194.52,281.22,188.346,279.775,180.947,276.802z"/>
	<path d="M246.972,131.071c4.596,1.136,9.306,1.712,13.999,1.712c26.726,0,49.879-18.159,56.305-44.159
		c3.715-15.028,1.352-30.618-6.653-43.899c-8.016-13.299-20.726-22.672-35.787-26.395c-4.57-1.13-9.258-1.702-13.933-1.702
		c-26.769,0-49.95,18.146-56.371,44.13c-3.726,15.073-1.358,30.687,6.664,43.967C219.213,117.994,231.918,127.351,246.972,131.071z
		 M223.948,65.557c4.209-17.033,19.406-28.929,36.955-28.929c3.06,0,6.132,0.376,9.134,1.118
		c9.871,2.439,18.202,8.584,23.457,17.303c5.25,8.709,6.8,18.929,4.366,28.775c-4.214,17.05-19.383,28.958-36.889,28.958
		c-3.078,0-6.173-0.38-9.2-1.128c-9.87-2.439-18.201-8.573-23.456-17.272C223.056,85.678,221.504,75.441,223.948,65.557z"/>
	<path d="M399.762,34.994c-34.084,0-60.783,17.996-60.783,40.97c0,22.975,26.699,40.971,60.783,40.971
		c34.084,0,60.783-17.996,60.783-40.971C460.545,52.991,433.846,34.994,399.762,34.994z M399.762,96.935
		c-23.342,0-40.783-11.071-40.783-20.971c0-9.898,17.441-20.97,40.783-20.97s40.783,11.071,40.783,20.97
		C440.545,85.864,423.104,96.935,399.762,96.935z"/>
</g>
<g>
</g>
<g>
</g>
<g>
</g>
<g>
</g>
<g>
</g>
<g>
</g>
<g>
</g>
<g>
</g>
<g>
</g>
<g>
</g>
<g>
</g>
<g>
</g>
<g>
</g>
<g>
</g>
<g>
</g>
</svg>
